<svg width="108" height="10" viewBox="0 0 108 10" fill="none" xmlns="http://www.w3.org/2000/svg">
<path opacity="0.4" fill-rule="evenodd" clip-rule="evenodd" d="M0.184986 4.51989C-0.0616589 4.78505 -0.0616589 5.21495 0.184986 5.48011L4.20433 9.80113C4.45098 10.0663 4.85087 10.0663 5.09752 9.80113C5.34417 9.53597 5.34416 9.10606 5.09752 8.8409L2.15635 5.67898L23.3684 5.67898C23.7172 5.67898 24 5.37499 24 5C24 4.62501 23.7172 4.32102 23.3684 4.32102L2.15635 4.32102L5.09752 1.1591C5.34416 0.893936 5.34416 0.464028 5.09752 0.198869C4.85087 -0.0662898 4.45098 -0.0662898 4.20433 0.198869L0.184986 4.51989Z" fill="#232D22"/>
<path fill-rule="evenodd" clip-rule="evenodd" d="M107.815 5.48012C108.062 5.21496 108.062 4.78505 107.815 4.51989L103.796 0.198873C103.549 -0.0662865 103.149 -0.0662866 102.902 0.198873C102.656 0.464032 102.656 0.893939 102.902 1.1591L105.844 4.32102L84.6316 4.32102C84.2828 4.32102 84 4.62501 84 5C84 5.37499 84.2828 5.67898 84.6316 5.67898L105.844 5.67899L102.902 8.84091C102.656 9.10607 102.656 9.53597 102.902 9.80113C103.149 10.0663 103.549 10.0663 103.796 9.80113L107.815 5.48012Z" fill="#232D22"/>
</svg>
